<svg width="1365" height="566" viewBox="0 0 1365 566" fill="none" xmlns="http://www.w3.org/2000/svg">
<g clip-path="url(#clip0_1224_56)">
<path d="M87.9861 166.147C90.4033 166.147 92.3629 164.187 92.3629 161.77C92.3629 159.353 90.4033 157.393 87.9861 157.393C85.5689 157.393 83.6094 159.353 83.6094 161.77C83.6094 164.187 85.5689 166.147 87.9861 166.147Z" fill="#A80C35"/>
<path d="M92.3652 162.145H216.665" stroke="#52C78A"/>
<path d="M310.701 444.507V230.922" stroke="#52C78A"/>
<path d="M136.377 275.754C138.794 275.754 140.753 273.794 140.753 271.377C140.753 268.96 138.794 267 136.377 267C133.96 267 132 268.96 132 271.377C132 273.794 133.96 275.754 136.377 275.754Z" fill="#A80C35"/>
<path d="M310.326 453.261C312.743 453.261 314.703 451.301 314.703 448.884C314.703 446.467 312.743 444.507 310.326 444.507C307.909 444.507 305.949 446.467 305.949 448.884C305.949 451.301 307.909 453.261 310.326 453.261Z" fill="#A80C35"/>
<path d="M0 232.336H311.2" stroke="#52C78A"/>
<path d="M176 398.5H311" stroke="#52C78A"/>
<path d="M141 270.547H311" stroke="#52C78A"/>
<path d="M310.701 444.507V230.922" stroke="#52C78A"/>
<path d="M215.977 208H312.023" stroke="#52C78A"/>
<path d="M218 93.5H314.047" stroke="#52C78A"/>
<path d="M176 557V162" stroke="#52C78A"/>
<path d="M217.846 232.629V-6.10352e-05" stroke="#52C78A"/>
<path d="M176.377 565.754C178.794 565.754 180.753 563.794 180.753 561.377C180.753 558.96 178.794 557 176.377 557C173.96 557 172 558.96 172 561.377C172 563.794 173.96 565.754 176.377 565.754Z" fill="#A80C35"/>
<path d="M1155.38 215.754C1157.8 215.754 1159.76 213.794 1159.76 211.377C1159.76 208.96 1157.8 207 1155.38 207C1152.96 207 1151 208.96 1151 211.377C1151 213.794 1152.96 215.754 1155.38 215.754Z" fill="#A80C35"/>
<path d="M1103.38 309.754C1105.8 309.754 1107.76 307.794 1107.76 305.377C1107.76 302.96 1105.8 301 1103.38 301C1100.96 301 1099 302.96 1099 305.377C1099 307.794 1100.96 309.754 1103.38 309.754Z" fill="#A80C35"/>
<path d="M1045 269.193H1365" stroke="#52C78A"/>
<path d="M1045 93.5H1105" stroke="#52C78A"/>
<path d="M1045 210.75H1151.09" stroke="#52C78A"/>
<path d="M1103.5 301V0" stroke="#52C78A"/>
</g>
<defs>
<clipPath id="clip0_1224_56">
<rect width="1365" height="566" fill="white"/>
</clipPath>
</defs>
</svg>
