<svg width="1365" height="566" viewBox="0 0 1365 566" fill="none" xmlns="http://www.w3.org/2000/svg">
<circle cx="87.9861" cy="161.77" r="4.37674" fill="#A80C35"/>
<line x1="92.3652" y1="162.145" x2="216.665" y2="162.145" stroke="#52C78A"/>
<line x1="310.701" y1="444.507" x2="310.701" y2="230.922" stroke="#52C78A"/>
<circle cx="136.377" cy="271.377" r="4.37674" fill="#A80C35"/>
<circle cx="310.326" cy="448.884" r="4.37674" fill="#A80C35"/>
<line y1="232.336" x2="311.2" y2="232.336" stroke="#52C78A"/>
<line x1="176" y1="398.5" x2="311" y2="398.5" stroke="#52C78A"/>
<line x1="141" y1="270.547" x2="311" y2="270.547" stroke="#52C78A"/>
<line x1="310.701" y1="444.507" x2="310.701" y2="230.922" stroke="#52C78A"/>
<line x1="215.977" y1="208" x2="312.023" y2="208" stroke="#52C78A"/>
<line x1="218" y1="93.5" x2="314.047" y2="93.5" stroke="#52C78A"/>
<path d="M176 557L176 162" stroke="#52C78A"/>
<line x1="217.846" y1="232.629" x2="217.846" y2="-4.57764e-05" stroke="#52C78A"/>
<circle cx="176.377" cy="561.377" r="4.37674" fill="#A80C35"/>
<circle cx="1155.38" cy="211.377" r="4.37674" fill="#A80C35"/>
<circle cx="1103.38" cy="305.377" r="4.37674" fill="#A80C35"/>
<line x1="1045" y1="269.193" x2="1365" y2="269.193" stroke="#52C78A"/>
<line x1="1045" y1="93.5" x2="1105" y2="93.5" stroke="#52C78A"/>
<line x1="1045" y1="210.75" x2="1151.09" y2="210.75" stroke="#52C78A"/>
<line x1="1103.5" y1="301" x2="1103.5" stroke="#52C78A"/>
</svg>
