<svg width="53" height="90" viewBox="0 0 53 90" fill="none" xmlns="http://www.w3.org/2000/svg">
<circle cx="26.0586" cy="63.0586" r="25.5586" fill="white" stroke="#F77B0B"/>
<g clip-path="url(#clip0_1204_1489)">
<path d="M19.4372 55.5645V51.75C19.4372 50.1973 20.697 48.9375 22.2497 48.9375H30.4587C30.5349 48.9375 30.611 48.9434 30.6872 48.9492V55.9688C30.6872 57.2637 31.736 58.3125 33.031 58.3125H40.0505C40.0622 58.3887 40.0622 58.4648 40.0622 58.541V74.25C40.0622 75.8027 38.8024 77.0625 37.2497 77.0625H24.1247C24.1247 77.3848 24.0661 77.7012 23.9665 78H37.2497C39.3181 78 40.9997 76.3184 40.9997 74.25V58.541C40.9997 57.7969 40.7009 57.082 40.1735 56.5547L32.4509 48.8262C31.9235 48.2988 31.2087 48 30.4646 48H22.2497C20.1813 48 18.4997 49.6816 18.4997 51.75V55.916L18.5056 55.9102C18.5935 55.8691 18.7399 55.793 18.8923 55.7344C19.0681 55.6641 19.2556 55.6055 19.4372 55.5645ZM39.5114 57.2168C39.5642 57.2695 39.611 57.3223 39.6521 57.375H33.031C32.2517 57.375 31.6247 56.748 31.6247 55.9688V49.3418C31.6833 49.3887 31.736 49.4355 31.7829 49.4824L39.5114 57.2168ZM17.3923 57.4688C16.8063 57.2285 16.1325 57.4102 15.7458 57.9082L15.1364 58.6992C15.0603 58.7988 14.9489 58.8574 14.8317 58.875L13.8415 59.0098C13.2145 59.0977 12.7224 59.5898 12.6403 60.2109L12.5056 61.2012C12.488 61.3242 12.4235 61.4355 12.3298 61.5059L11.5329 62.127C11.0349 62.5137 10.8532 63.1875 11.0935 63.7734L11.4685 64.6992C11.5153 64.8105 11.5153 64.9395 11.4685 65.0566L11.0935 65.9766C10.8532 66.5625 11.0349 67.2363 11.5329 67.623L12.3239 68.2383C12.4235 68.3145 12.4821 68.4258 12.4997 68.543L12.6345 69.5332C12.7224 70.1602 13.2145 70.6523 13.8356 70.7344L14.7497 70.8633V77.5312C14.7497 77.7012 14.8376 77.8535 14.9841 77.9355C15.1306 78.0176 15.3063 78.0176 15.4528 77.9355L18.4997 76.1953L21.5466 77.9355C21.6931 78.0176 21.8688 78.0176 22.0153 77.9355C22.1618 77.8535 22.2497 77.6953 22.2497 77.5312V70.8633L23.1579 70.7402C23.7849 70.6523 24.277 70.1602 24.3591 69.5391L24.4938 68.5488C24.5114 68.4258 24.5759 68.3145 24.6696 68.2441L25.4606 67.6289C25.9587 67.2422 26.1403 66.5684 25.9001 65.9824L25.531 65.0508C25.4841 64.9395 25.4841 64.8105 25.531 64.6934L25.9118 63.7676C26.152 63.1816 25.9704 62.5078 25.4724 62.1211L24.6813 61.5059C24.5817 61.4297 24.5231 61.3184 24.5056 61.2012L24.3708 60.2109C24.2829 59.584 23.7907 59.0918 23.1696 59.0098L22.1794 58.875C22.0563 58.8574 21.945 58.793 21.8747 58.6992L21.2595 57.9082C20.8728 57.4102 20.1989 57.2285 19.613 57.4688L18.6755 57.8438C18.5642 57.8906 18.4353 57.8906 18.3181 57.8438L17.3923 57.4629V57.4688ZM21.6872 70.043C21.5935 70.0605 21.5114 70.1074 21.447 70.1719C21.3239 70.2539 21.2126 70.3594 21.1188 70.4766L20.5036 71.2676C20.3747 71.4316 20.1521 71.4961 19.9528 71.4141L19.027 71.0332C18.6872 70.8926 18.3005 70.8926 17.9606 71.0332L17.0349 71.4141C16.8415 71.4961 16.613 71.4316 16.4841 71.2676L15.8806 70.4766C15.7868 70.3535 15.6755 70.2539 15.5524 70.1719C15.488 70.1074 15.406 70.0605 15.3122 70.043C15.2009 69.9961 15.0837 69.9668 14.9606 69.9492L13.9704 69.8145C13.7595 69.7852 13.5954 69.6211 13.572 69.4102L13.4372 68.4199C13.3903 68.0566 13.197 67.7227 12.904 67.5L12.1071 66.8789C11.9431 66.75 11.8786 66.5273 11.9606 66.3281L12.3415 65.4023C12.4821 65.0625 12.4821 64.6758 12.3415 64.3359L11.9606 63.4102C11.8786 63.2168 11.9431 62.9883 12.1071 62.8594L12.8981 62.2441C13.1911 62.0156 13.3786 61.6875 13.4313 61.3242L13.5661 60.334C13.5954 60.123 13.7595 59.959 13.9645 59.9355L14.9548 59.8008C15.3181 59.7539 15.652 59.5605 15.8747 59.2676L16.4899 58.4766C16.6188 58.3125 16.8415 58.248 17.0407 58.3301L17.9665 58.7109C18.3063 58.8516 18.6931 58.8516 19.0329 58.7109L19.9587 58.3301C20.152 58.248 20.3806 58.3125 20.5095 58.4766L21.1247 59.2676C21.3532 59.5605 21.6813 59.748 22.0446 59.8008L23.0349 59.9355C23.2458 59.9648 23.4099 60.1289 23.4333 60.334L23.5681 61.3242C23.6149 61.6875 23.8083 62.0215 24.1013 62.2441L24.8923 62.8594C25.0563 62.9883 25.1208 63.2109 25.0388 63.4102L24.6579 64.3359C24.5173 64.6758 24.5173 65.0625 24.6579 65.4023L25.0388 66.3281C25.1208 66.5215 25.0563 66.75 24.8923 66.8789L24.1013 67.4941C23.8083 67.7227 23.6208 68.0508 23.5681 68.4141L23.4333 69.4043C23.404 69.6152 23.2399 69.7793 23.0349 69.8086L22.0446 69.9434C21.9216 69.9609 21.8044 69.9902 21.6931 70.0371L21.6872 70.043ZM15.6872 71.7598L15.7517 71.8418C16.1384 72.3398 16.8122 72.5215 17.3981 72.2812L18.3239 71.9062C18.4353 71.8594 18.5642 71.8594 18.6813 71.9062L19.6071 72.2871C20.1931 72.5273 20.8669 72.3457 21.2536 71.8477L21.3181 71.7656V76.7285L18.7399 75.252C18.5935 75.1699 18.4177 75.1699 18.277 75.252L15.6872 76.7227V71.7598ZM15.6872 64.875C15.6872 64.1291 15.9835 63.4137 16.511 62.8863C17.0384 62.3588 17.7538 62.0625 18.4997 62.0625C19.2456 62.0625 19.961 62.3588 20.4884 62.8863C21.0159 63.4137 21.3122 64.1291 21.3122 64.875C21.3122 65.6209 21.0159 66.3363 20.4884 66.8637C19.961 67.3912 19.2456 67.6875 18.4997 67.6875C17.7538 67.6875 17.0384 67.3912 16.511 66.8637C15.9835 66.3363 15.6872 65.6209 15.6872 64.875ZM22.2497 64.875C22.2497 63.8804 21.8546 62.9266 21.1514 62.2233C20.4481 61.5201 19.4943 61.125 18.4997 61.125C17.5051 61.125 16.5513 61.5201 15.8481 62.2233C15.1448 62.9266 14.7497 63.8804 14.7497 64.875C14.7497 65.8696 15.1448 66.8234 15.8481 67.5266C16.5513 68.2299 17.5051 68.625 18.4997 68.625C19.4943 68.625 20.4481 68.2299 21.1514 67.5266C21.8546 66.8234 22.2497 65.8696 22.2497 64.875Z" fill="#F77B0B"/>
</g>
<line x1="26.5566" y1="38.2302" x2="26.5566" y2="10" stroke="#F77B0B"/>
<circle cx="26.5" cy="5.5" r="5" fill="#F77B0B" stroke="#F77B0B"/>
<defs>
<clipPath id="clip0_1204_1489">
<rect width="30" height="30" fill="white" transform="translate(11 48)"/>
</clipPath>
</defs>
</svg>
