<svg width="691" height="541" viewBox="0 0 691 541" fill="none" xmlns="http://www.w3.org/2000/svg">
<g clip-path="url(#clip0_1224_150)">
<path d="M76.9861 166.146C79.4033 166.146 81.3629 164.186 81.3629 161.769C81.3629 159.352 79.4033 157.392 76.9861 157.392C74.5689 157.392 72.6094 159.352 72.6094 161.769C72.6094 164.186 74.5689 166.146 76.9861 166.146Z" fill="#A80C35"/>
<path d="M4.37674 236.754C6.79395 236.754 8.75348 234.794 8.75348 232.377C8.75348 229.96 6.79395 228 4.37674 228C1.95953 228 0 229.96 0 232.377C0 234.794 1.95953 236.754 4.37674 236.754Z" fill="#A80C35"/>
<path d="M299.326 453.26C301.743 453.26 303.703 451.3 303.703 448.883C303.703 446.466 301.743 444.506 299.326 444.506C296.909 444.506 294.949 446.466 294.949 448.883C294.949 451.3 296.909 453.26 299.326 453.26Z" fill="#A80C35"/>
<path d="M8.99805 232.5L84.8651 232.172" stroke="#52C78A"/>
<path d="M175.9 232.172H300.2" stroke="#52C78A"/>
<path d="M81.3652 162.144H205.665" stroke="#52C78A"/>
<path d="M300.201 394.987H426.251" stroke="#52C78A"/>
<path d="M303.703 270.687H536.546" stroke="#52C78A"/>
<path d="M298.449 270.687H531.292" stroke="#52C78A"/>
<path d="M503.283 193.656H736.126" stroke="#52C78A"/>
<path d="M299.701 444.506V230.921" stroke="#52C78A"/>
<path d="M299.701 444.506V230.921" stroke="#52C78A"/>
<path d="M504.531 383.231V194.156" stroke="#52C78A"/>
<path d="M426.25 497.027L425.375 141.636" stroke="#52C78A"/>
<path d="M206.846 232.628V-0.000488281" stroke="#52C78A"/>
<path d="M540.922 274.689C543.339 274.689 545.298 272.729 545.298 270.312C545.298 267.895 543.339 265.935 540.922 265.935C538.504 265.935 536.545 267.895 536.545 270.312C536.545 272.729 538.504 274.689 540.922 274.689Z" fill="#A80C35"/>
<path d="M504.156 388.484C506.573 388.484 508.533 386.524 508.533 384.107C508.533 381.69 506.573 379.73 504.156 379.73C501.739 379.73 499.779 381.69 499.779 384.107C499.779 386.524 501.739 388.484 504.156 388.484Z" fill="#A80C35"/>
<path d="M425.375 145.138C427.792 145.138 429.752 143.178 429.752 140.761C429.752 138.344 427.792 136.384 425.375 136.384C422.958 136.384 420.998 138.344 420.998 140.761C420.998 143.178 422.958 145.138 425.375 145.138Z" fill="#A80C35"/>
<path d="M425.375 504.03C427.792 504.03 429.752 502.07 429.752 499.653C429.752 497.236 427.792 495.276 425.375 495.276C422.958 495.276 420.998 497.236 420.998 499.653C420.998 502.07 422.958 504.03 425.375 504.03Z" fill="#A80C35"/>
<path d="M453.389 220.417C458.706 220.417 463.017 216.106 463.017 210.788C463.017 205.47 458.706 201.159 453.389 201.159C448.071 201.159 443.76 205.47 443.76 210.788C443.76 216.106 448.071 220.417 453.389 220.417Z" fill="#F77B0B"/>
<path d="M453.764 204.482V180.151" stroke="#F77B0B"/>
<path d="M403.494 181.402H452.917" stroke="#F77B0B"/>
<path d="M406.702 322.06C406.702 346.979 386.501 367.181 361.582 367.181C336.662 367.181 316.461 346.979 316.461 322.06C316.461 297.14 336.662 276.939 361.582 276.939C386.501 276.939 406.702 297.14 406.702 322.06Z" stroke="#F77B0B"/>
<path d="M355.34 317.131C354.726 317.131 354.2 316.912 353.761 316.473C353.322 316.034 353.102 315.507 353.102 314.894C353.102 314.281 353.322 313.755 353.761 313.316C354.2 312.877 354.726 312.657 355.34 312.657C355.953 312.657 356.479 312.877 356.918 313.316C357.357 313.755 357.577 314.281 357.577 314.894C357.577 315.3 357.473 315.673 357.266 316.013C357.067 316.353 356.798 316.626 356.458 316.833C356.127 317.032 355.754 317.131 355.34 317.131ZM361.478 317.131C360.865 317.131 360.339 316.912 359.9 316.473C359.461 316.034 359.241 315.507 359.241 314.894C359.241 314.281 359.461 313.755 359.9 313.316C360.339 312.877 360.865 312.657 361.478 312.657C362.091 312.657 362.618 312.877 363.057 313.316C363.496 313.755 363.715 314.281 363.715 314.894C363.715 315.3 363.612 315.673 363.405 316.013C363.206 316.353 362.937 316.626 362.597 316.833C362.265 317.032 361.893 317.131 361.478 317.131ZM367.617 317.131C367.004 317.131 366.478 316.912 366.038 316.473C365.599 316.034 365.38 315.507 365.38 314.894C365.38 314.281 365.599 313.755 366.038 313.316C366.478 312.877 367.004 312.657 367.617 312.657C368.23 312.657 368.756 312.877 369.195 313.316C369.635 313.755 369.854 314.281 369.854 314.894C369.854 315.3 369.751 315.673 369.543 316.013C369.345 316.353 369.075 316.626 368.736 316.833C368.404 317.032 368.031 317.131 367.617 317.131Z" fill="#F77B0B"/>
<path d="M188.824 319.252C183.56 319.252 179.293 314.941 179.293 309.623C179.293 304.305 183.56 299.994 188.824 299.994C194.088 299.994 198.355 304.305 198.355 309.623C198.355 314.941 194.088 319.252 188.824 319.252Z" fill="#F77B0B"/>
<path d="M178.947 310.59H130.024" stroke="#F77B0B"/>
<path d="M128.266 311.09V278.395" stroke="#F77B0B"/>
<path d="M85.3633 232.775C85.3633 257.7 105.363 277.896 130.023 277.896C154.683 277.896 174.683 257.7 174.683 232.775C174.683 207.851 154.683 187.655 130.023 187.655C105.363 187.655 85.3633 207.851 85.3633 232.775Z" stroke="#F77B0B"/>
<path d="M137.836 213.866V210.807C137.846 210.272 137.677 209.749 137.355 209.323C137.034 208.898 136.58 208.595 136.066 208.463C135.827 208.437 135.585 208.437 135.345 208.463H124.178C123.843 208.44 123.507 208.489 123.193 208.608C122.879 208.726 122.593 208.912 122.356 209.152C122.119 209.391 121.935 209.68 121.818 209.997C121.7 210.315 121.651 210.654 121.675 210.992V213.866H115.58C114.566 213.873 113.58 214.209 112.769 214.824C111.957 215.439 111.362 216.3 111.071 217.282C110.776 218.269 110.801 219.326 111.143 220.298C111.485 221.27 112.125 222.106 112.972 222.684C113.219 222.851 113.483 222.993 113.758 223.108C113.848 223.135 113.925 223.194 113.976 223.275C114.026 223.355 114.047 223.451 114.033 223.545V239.328C114.033 243.644 114.033 247.961 114.033 252.278C113.994 253.178 114.182 254.074 114.582 254.88C114.981 255.687 115.577 256.377 116.314 256.885C117.199 257.54 118.271 257.884 119.368 257.865C126.301 257.865 133.235 257.865 140.169 257.865C140.876 257.878 141.579 257.746 142.234 257.477C142.89 257.208 143.485 256.808 143.983 256.301C144.481 255.794 144.873 255.19 145.134 254.526C145.396 253.862 145.521 253.151 145.503 252.436C145.503 250.027 145.503 247.617 145.503 245.22C145.503 238.017 145.503 230.814 145.503 223.611C145.489 223.5 145.514 223.387 145.574 223.292C145.634 223.198 145.725 223.128 145.831 223.094C146.882 222.675 147.751 221.89 148.282 220.882C148.813 219.874 148.972 218.707 148.729 217.592C148.486 216.476 147.858 215.485 146.957 214.795C146.056 214.105 144.941 213.761 143.813 213.826H137.875L137.836 213.866ZM143.354 238.348V252.304C143.38 252.759 143.311 253.214 143.152 253.639C142.992 254.065 142.745 254.452 142.427 254.774C142.109 255.097 141.727 255.348 141.306 255.511C140.885 255.674 140.435 255.745 139.985 255.72H119.512C119.061 255.747 118.609 255.677 118.187 255.515C117.765 255.353 117.381 255.102 117.061 254.78C116.742 254.457 116.494 254.069 116.333 253.643C116.173 253.216 116.104 252.76 116.13 252.304C116.13 242.876 116.13 233.44 116.13 223.995C116.13 223.584 116.261 223.492 116.642 223.492H142.856C143.288 223.492 143.354 223.637 143.354 224.035C143.341 228.788 143.354 233.542 143.354 238.348ZM129.696 216.011H144.114C144.543 216.039 144.959 216.173 145.325 216.401C145.69 216.63 145.995 216.946 146.211 217.321C146.427 217.697 146.549 218.12 146.565 218.554C146.581 218.989 146.491 219.42 146.303 219.811C146.088 220.338 145.711 220.782 145.227 221.075C144.743 221.369 144.178 221.496 143.616 221.439H115.436C114.951 221.426 114.48 221.276 114.074 221.008C113.668 220.74 113.344 220.363 113.138 219.92C112.931 219.477 112.851 218.984 112.904 218.498C112.958 218.011 113.145 217.549 113.443 217.163C113.711 216.777 114.072 216.468 114.492 216.264C114.912 216.06 115.377 215.968 115.842 215.997L129.696 216.011ZM123.772 213.852C123.772 212.872 123.772 211.959 123.772 211.045C123.772 210.635 123.916 210.516 124.296 210.516H135.175C135.673 210.516 135.712 210.516 135.712 211.058V213.852H123.772Z" fill="#F77B0B"/>
<path d="M130.808 243.287C130.808 241.155 130.808 239.023 130.808 236.892C130.826 236.748 130.815 236.603 130.775 236.464C130.736 236.325 130.669 236.196 130.578 236.084C130.487 235.972 130.374 235.881 130.247 235.815C130.12 235.749 129.981 235.71 129.838 235.7C129.585 235.676 129.331 235.748 129.128 235.902C128.924 236.056 128.785 236.282 128.737 236.534C128.723 236.671 128.723 236.808 128.737 236.945V249.629C128.717 249.849 128.761 250.07 128.864 250.266C128.966 250.461 129.122 250.621 129.314 250.728C129.471 250.791 129.642 250.814 129.81 250.795C129.978 250.776 130.139 250.715 130.279 250.618C130.419 250.522 130.533 250.392 130.611 250.24C130.69 250.089 130.73 249.92 130.729 249.749C130.729 248.901 130.729 248.041 130.729 247.193L130.808 243.287Z" fill="#F77B0B"/>
<path d="M121.933 243.275C121.933 245.433 121.933 247.592 121.933 249.75C121.919 249.999 121.995 250.245 122.147 250.443C122.299 250.64 122.516 250.775 122.759 250.822C122.977 250.875 123.206 250.853 123.41 250.759C123.614 250.666 123.782 250.506 123.886 250.306C123.96 250.142 124.008 249.968 124.03 249.79C124.044 249.666 124.044 249.542 124.03 249.419V237.105C124.05 236.902 124.05 236.698 124.03 236.496C123.969 236.256 123.827 236.045 123.628 235.9C123.429 235.755 123.186 235.685 122.941 235.702C122.697 235.719 122.466 235.823 122.289 235.994C122.112 236.166 122 236.395 121.973 236.641C121.973 236.8 121.973 236.946 121.973 237.105L121.933 243.275Z" fill="#F77B0B"/>
<path d="M137.559 243.248V236.905C137.559 236.137 137.14 235.674 136.471 235.701C136.224 235.703 135.987 235.797 135.806 235.966C135.624 236.135 135.511 236.366 135.488 236.614C135.475 236.751 135.475 236.888 135.488 237.025V249.537C135.447 249.79 135.49 250.05 135.611 250.276C135.732 250.501 135.924 250.679 136.157 250.782C136.306 250.842 136.468 250.867 136.628 250.853C136.789 250.839 136.944 250.788 137.081 250.703C137.219 250.619 137.335 250.502 137.42 250.364C137.505 250.226 137.557 250.07 137.572 249.908C137.572 249.617 137.572 249.312 137.572 249.008L137.559 243.248Z" fill="#F77B0B"/>
<path d="M231.544 346.468C226.501 346.468 222.413 342.157 222.413 336.839C222.413 331.521 226.501 327.21 231.544 327.21C236.587 327.21 240.676 331.521 240.676 336.839C240.676 342.157 236.587 346.468 231.544 346.468Z" fill="#F77B0B"/>
<path d="M231.234 395.281H208.16" stroke="#F77B0B"/>
<path d="M231.734 395.781V346.359" stroke="#F77B0B"/>
<path d="M173.606 376.673C172.736 377.051 172.038 377.629 171.174 377.873C170.509 378.06 170.01 377.959 169.517 377.429C167.874 375.66 165.897 375.675 164.226 377.428C163.58 378.106 162.588 378.227 161.831 377.64C160.746 376.799 159.537 376.32 158.226 376.081C156.793 375.819 155.635 376.309 154.785 377.538C153.934 378.767 153.902 380.398 154.702 381.701C155.488 382.982 156.659 383.527 158.071 383.383C159.21 383.267 160.282 382.856 161.287 382.262C161.641 382.052 162.005 381.837 162.389 381.711C163.397 381.38 163.729 381.618 164.221 382.603C164.838 383.843 165.381 385.062 165.207 386.528C165.147 387.029 165.107 387.38 164.574 387.562C163.763 387.838 163.405 388.569 163.298 389.394C163.223 389.971 162.992 390.15 162.46 390.199C155.354 390.865 148.795 396.703 146.956 403.971C146.71 404.945 146.775 405.052 147.721 405.054C150.58 405.062 153.439 405.051 156.298 405.063C156.832 405.065 157.257 404.926 157.566 404.427C159.251 401.705 161.699 400.594 164.717 400.639C167.05 400.674 169.384 400.63 171.717 400.664C172.409 400.675 172.733 400.469 172.728 399.685C172.712 396.983 172.76 394.281 172.734 391.579C172.719 390.049 172.667 390.018 171.254 390.011C170.704 390.008 170.423 389.849 170.281 389.24C170.11 388.509 169.693 387.888 168.983 387.599C168.558 387.425 168.514 387.101 168.428 386.677C168.039 384.767 169.334 383.456 169.906 381.896C170.076 381.433 171.342 381.485 172.001 381.958C172.907 382.608 173.89 383.044 174.948 383.312C176.475 383.7 177.797 383.33 178.799 382.034C179.715 380.848 179.839 379.501 179.171 378.153C178.453 376.703 177.252 376.065 175.704 376.154C174.999 376.194 174.323 376.369 173.606 376.673ZM155.485 379.932C155.494 378.185 156.679 377.139 158.29 377.446C159.427 377.663 160.444 378.163 161.425 378.797C162.757 379.659 164.311 379.356 165.315 378.103C166.274 376.905 167.933 376.871 168.792 378.119C169.287 378.838 169.873 379.032 170.656 379.048C171.591 379.067 172.427 378.907 173.214 378.324C173.908 377.81 174.732 377.566 175.56 377.347C176.581 377.076 177.409 377.389 178.063 378.194C178.658 378.928 178.829 379.801 178.402 380.683C177.938 381.638 177.153 382.106 176.12 382.097C174.909 382.086 173.811 381.676 172.853 380.941C171.872 380.187 170.789 380.316 169.74 380.466C168.851 380.594 168.912 381.623 168.573 382.268C168.517 382.375 168.501 382.516 168.426 382.601C167.215 383.987 167.509 385.693 167.519 387.335C167.523 387.94 167.768 388.441 168.344 388.613C169.11 388.841 169.448 389.412 169.502 390.163C169.569 391.108 170.027 391.482 170.876 391.399C171.583 391.33 171.865 391.613 171.849 392.395C171.808 394.394 171.803 396.396 171.851 398.395C171.871 399.233 171.563 399.447 170.825 399.43C168.958 399.386 167.089 399.44 165.222 399.4C161.995 399.332 159.27 400.421 157.232 403.145C156.936 403.54 156.586 403.729 156.11 403.734C154.597 403.75 153.078 403.886 151.575 403.777C150.596 403.706 149.61 404.03 148.589 403.712C148.615 403.523 148.616 403.371 148.658 403.233C149.526 400.393 150.981 397.941 153.068 395.922C155.83 393.25 159.121 391.825 162.82 391.382C164.135 391.225 164.298 391.073 164.65 389.718C164.763 389.282 164.811 388.754 165.348 388.65C166.347 388.457 166.573 387.764 166.525 386.823C166.489 386.118 166.507 385.408 166.517 384.7C166.523 384.284 166.425 383.916 166.183 383.582C165.701 382.916 165.355 382.175 165.088 381.387C164.935 380.937 164.688 380.49 164.207 380.455C163.175 380.38 162.129 380.185 161.163 380.886C160.295 381.516 159.331 381.962 158.257 382.077C156.719 382.243 155.926 381.673 155.485 379.932Z" fill="#F77B0B"/>
<path d="M177.543 404.457C179.599 405.337 181.689 405.007 183.749 405.033C184.132 405.038 184.317 404.758 184.343 404.372C184.361 404.096 184.363 403.819 184.361 403.542C184.315 397.852 184.466 392.16 184.232 386.47C184.195 385.564 183.954 385.172 183.074 385.22C181.853 385.287 180.631 385.191 179.406 385.354C176.039 385.802 174.119 388.027 174.114 391.58C174.111 394.011 174.196 396.446 174.09 398.871C173.97 401.63 175.233 403.334 177.543 404.457ZM176.965 402.522C176.006 401.764 175.586 400.753 175.596 399.49C175.618 396.723 175.588 393.955 175.609 391.188C175.627 388.782 176.564 387.514 178.748 386.805C179.892 386.434 181.066 386.661 182.222 386.561C183.044 386.489 183.264 386.839 183.257 387.67C183.218 392.497 183.228 397.325 183.211 402.153C183.205 403.784 183.192 403.783 181.701 403.747C181.526 403.743 181.351 403.754 181.177 403.773C179.663 403.941 178.288 403.569 176.965 402.522Z" fill="#F77B0B"/>
<path d="M158.396 406.829C157.9 406.482 157.406 406.473 156.908 406.473C153.706 406.475 150.503 406.469 147.301 406.475C145.769 406.478 145.36 406.857 145.11 408.458C145.101 408.519 145.089 408.579 145.082 408.64C144.832 410.662 144.942 410.793 146.871 410.784C150.043 410.77 153.216 410.763 156.389 410.737C156.94 410.733 157.49 410.643 158.042 410.614C159.175 410.556 159.194 410.561 159.157 409.328C159.13 408.451 159.206 407.524 158.396 406.829ZM155.863 407.785C156.241 407.786 156.621 407.802 156.999 407.784C157.678 407.752 158.029 408.018 158.013 408.797C157.996 409.604 157.485 409.551 156.983 409.552C154.743 409.553 152.503 409.555 150.263 409.548C149.216 409.545 148.169 409.515 147.123 409.511C146.425 409.508 146.254 409.183 146.357 408.464C146.465 407.72 146.931 407.794 147.384 407.792C150.153 407.783 152.921 407.787 155.863 407.785Z" fill="#F77B0B"/>
<path d="M155.402 420.62C154.623 418.772 153.604 417.162 152.542 415.578C152.26 415.157 151.988 415.03 151.654 415.476C150.493 417.027 149.436 418.659 148.766 420.508C148.2 422.069 148.737 423.698 149.984 424.697C151.19 425.662 152.856 425.683 154.15 424.748C155.407 423.84 155.869 422.374 155.402 420.62ZM150.44 423.288C149.996 422.796 149.69 422.151 149.799 421.537C150.104 419.824 151.073 418.454 152.073 417.034C153.165 418.284 153.838 419.628 154.361 421.066C154.561 421.617 154.507 422.153 154.267 422.671C153.623 424.055 151.852 424.687 150.44 423.288Z" fill="#F77B0B"/>
<path d="M122.133 400.345C122.133 425.29 141.304 445.466 164.898 445.466C188.491 445.466 207.662 425.29 207.662 400.345C207.662 375.4 188.491 355.224 164.898 355.224C141.304 355.224 122.133 375.4 122.133 400.345Z" stroke="#F77B0B"/>
<path d="M371.478 394.611C371.478 399.653 367.391 403.74 362.35 403.74C357.308 403.74 353.221 399.653 353.221 394.611C353.221 389.57 357.308 385.482 362.35 385.482C367.391 385.482 371.478 389.57 371.478 394.611Z" fill="#F77B0B" stroke="#F77B0B"/>
<path d="M362.824 451.912V402.49" stroke="#F77B0B"/>
<path d="M406.697 495.379C406.697 520.299 386.495 540.5 361.576 540.5C336.656 540.5 316.455 520.299 316.455 495.379C316.455 470.46 336.656 450.258 361.576 450.258C386.495 450.258 406.697 470.46 406.697 495.379Z" stroke="#F77B0B"/>
<mask id="mask0_1224_150" style="mask-type:luminance" maskUnits="userSpaceOnUse" x="335" y="474" width="55" height="45">
<path d="M389.924 474.268H335.215V518.035H389.924V474.268Z" fill="white"/>
</mask>
<g mask="url(#mask0_1224_150)">
<path d="M342.054 481.106C342.054 479.656 342.63 478.264 343.656 477.238C344.682 476.212 346.073 475.636 347.524 475.636C348.975 475.636 350.367 476.212 351.393 477.238C352.419 478.264 352.995 479.656 352.995 481.106C352.995 482.557 352.419 483.949 351.393 484.975C350.367 486.001 348.975 486.577 347.524 486.577C346.073 486.577 344.682 486.001 343.656 484.975C342.63 483.949 342.054 482.557 342.054 481.106ZM354.363 481.106C354.363 479.293 353.643 477.553 352.36 476.271C351.078 474.988 349.338 474.268 347.524 474.268C345.711 474.268 343.971 474.988 342.689 476.271C341.406 477.553 340.686 479.293 340.686 481.106C340.686 482.92 341.406 484.66 342.689 485.942C343.971 487.225 345.711 487.945 347.524 487.945C349.338 487.945 351.078 487.225 352.36 485.942C353.643 484.66 354.363 482.92 354.363 481.106ZM362.569 486.577C364.383 486.577 366.123 487.298 367.405 488.58C368.688 489.863 369.408 491.602 369.408 493.416C369.408 495.23 368.688 496.969 367.405 498.252C366.123 499.534 364.383 500.255 362.569 500.255C360.756 500.255 359.016 499.534 357.734 498.252C356.451 496.969 355.731 495.23 355.731 493.416C355.731 491.602 356.451 489.863 357.734 488.58C359.016 487.298 360.756 486.577 362.569 486.577ZM362.569 501.622C363.647 501.622 364.714 501.41 365.71 500.998C366.706 500.585 367.61 499.981 368.372 499.219C369.134 498.457 369.739 497.552 370.151 496.557C370.564 495.561 370.776 494.494 370.776 493.416C370.776 492.338 370.564 491.271 370.151 490.276C369.739 489.28 369.134 488.375 368.372 487.613C367.61 486.851 366.706 486.247 365.71 485.834C364.714 485.422 363.647 485.21 362.569 485.21C361.492 485.21 360.425 485.422 359.429 485.834C358.433 486.247 357.529 486.851 356.767 487.613C356.005 488.375 355.4 489.28 354.988 490.276C354.575 491.271 354.363 492.338 354.363 493.416C354.363 494.494 354.575 495.561 354.988 496.557C355.4 497.552 356.005 498.457 356.767 499.219C357.529 499.981 358.433 500.585 359.429 500.998C360.425 501.41 361.492 501.622 362.569 501.622ZM357.552 505.726H367.587C373.127 505.726 377.615 510.214 377.615 515.753C377.615 516.257 377.204 516.668 376.7 516.668H348.439C347.935 516.668 347.524 516.257 347.524 515.753C347.524 510.214 352.012 505.726 357.552 505.726ZM357.552 504.358C351.26 504.358 346.157 509.461 346.157 515.753C346.157 517.009 347.174 518.035 348.439 518.035H376.7C377.956 518.035 378.982 517.018 378.982 515.753C378.982 509.461 373.879 504.358 367.587 504.358H357.552ZM378.982 475.636C380.433 475.636 381.825 476.212 382.851 477.238C383.877 478.264 384.453 479.656 384.453 481.106C384.453 482.557 383.877 483.949 382.851 484.975C381.825 486.001 380.433 486.577 378.982 486.577C377.531 486.577 376.14 486.001 375.114 484.975C374.088 483.949 373.511 482.557 373.511 481.106C373.511 479.656 374.088 478.264 375.114 477.238C376.14 476.212 377.531 475.636 378.982 475.636ZM378.982 487.945C380.796 487.945 382.535 487.225 383.818 485.942C385.1 484.66 385.821 482.92 385.821 481.106C385.821 479.293 385.1 477.553 383.818 476.271C382.535 474.988 380.796 474.268 378.982 474.268C377.169 474.268 375.429 474.988 374.147 476.271C372.864 477.553 372.144 479.293 372.144 481.106C372.144 482.92 372.864 484.66 374.147 485.942C375.429 487.225 377.169 487.945 378.982 487.945ZM381.034 492.048C385.188 492.048 388.556 495.416 388.556 499.571C388.556 499.947 388.864 500.255 389.24 500.255C389.616 500.255 389.924 499.947 389.924 499.571C389.924 494.664 385.941 490.681 381.034 490.681H373.169C373.281 491.125 373.375 491.587 373.426 492.048H381.034ZM351.713 492.048C351.773 491.587 351.858 491.125 351.97 490.681H344.105C339.198 490.681 335.215 494.664 335.215 499.571C335.215 499.947 335.523 500.255 335.899 500.255C336.275 500.255 336.583 499.947 336.583 499.571C336.583 495.416 339.951 492.048 344.105 492.048H351.713Z" fill="#F77B0B"/>
</g>
<path d="M444.635 362.224C449.953 362.224 454.264 357.913 454.264 352.595C454.264 347.277 449.953 342.966 444.635 342.966C439.317 342.966 435.006 347.277 435.006 352.595C435.006 357.913 439.317 362.224 444.635 362.224Z" fill="#F77B0B"/>
<path d="M476.523 397.238V351.72" stroke="#F77B0B"/>
<path d="M452.514 352.97H476.845" stroke="#F77B0B"/>
<path d="M477.023 396.738H522.542" stroke="#F77B0B"/>
<path d="M613.281 393.839C613.281 418.759 593.079 438.96 568.16 438.96C543.24 438.96 523.039 418.759 523.039 393.839C523.039 368.92 543.24 348.718 568.16 348.718C593.079 348.718 613.281 368.92 613.281 393.839Z" stroke="#F77B0B"/>
<path d="M574.014 373.128C574.663 373.41 575.224 373.632 575.761 373.901C576.504 374.273 577.219 374.614 577.787 373.646C577.83 373.573 577.923 373.503 578.005 373.482C580.393 372.864 582.86 373.001 585.287 372.746C586.257 372.644 586.956 373.449 587.679 374.023C587.969 374.254 588.24 374.514 588.552 374.711C590.819 376.139 591.415 378.208 590.804 380.697C590.504 381.917 590.858 382.474 592.149 382.354C593.374 382.239 593.827 382.867 593.73 384.026C593.404 387.94 593.094 391.855 592.765 395.769C592.533 398.531 592.267 401.29 592.05 404.053C592.011 404.558 591.78 405.256 592.595 405.41C593.362 405.554 593.513 405.019 593.574 404.4C593.621 403.93 593.928 403.618 594.4 403.624C594.948 403.632 595.252 404.038 595.286 404.529C595.347 405.403 595.412 406.297 595.294 407.158C595.17 408.065 594.521 408.235 593.737 407.839C592.591 407.259 591.787 407.4 591.511 408.817C591.337 409.71 590.636 409.835 589.906 409.763C588.777 409.651 588.181 410.047 587.761 411.182C586.572 414.394 584.013 416.147 580.807 416.173C577.282 416.202 574.918 414.643 573.528 411.261C573.157 410.358 572.663 409.973 571.671 409.996C569.172 410.051 566.67 410.052 564.171 409.995C563.131 409.972 562.605 410.322 562.263 411.339C561.116 414.746 558.43 416.691 555.12 416.648C551.939 416.607 549.433 414.697 548.26 411.317C547.954 410.436 547.501 409.972 546.558 410.077C545.458 410.199 544.762 409.817 544.676 408.622C544.593 407.471 543.919 407.387 543.024 407.734C541.357 408.382 541.136 408.28 540.871 406.554C540.767 405.873 540.796 405.17 540.792 404.477C540.788 403.907 541.002 403.462 541.651 403.439C542.205 403.419 542.518 403.75 542.569 404.277C542.628 404.887 542.777 405.47 543.519 405.336C544.311 405.194 544.079 404.465 544.034 403.96C543.438 397.287 542.82 390.617 542.2 383.947C542.098 382.849 542.432 382.095 543.663 382.092C544.368 382.09 544.621 381.66 544.82 381.106C545.225 379.974 545.661 378.853 546.044 377.714C546.338 376.839 546.909 376.342 547.801 376.13C549.732 375.671 551.655 375.174 553.582 374.699C555.08 374.33 556.257 375.209 557.521 375.736C557.99 375.932 558.444 376.166 558.895 376.403C559.494 376.719 559.988 376.706 560.173 375.953C560.448 374.834 561.273 374.327 562.234 373.878C563.869 373.115 565.497 372.327 567.075 371.453C568.07 370.902 568.963 370.898 569.967 371.377C571.261 371.994 572.597 372.523 574.014 373.128ZM552.643 383.931C549.933 383.931 547.223 383.931 544.461 383.931C544.479 385.665 544.668 387.128 544.753 388.596C544.823 389.814 545.242 390.186 546.426 390.162C549.481 390.099 552.538 390.141 555.595 390.144C556.168 390.145 556.834 390.172 556.9 390.875C556.977 391.697 556.233 391.749 555.643 391.843C555.326 391.894 554.997 391.886 554.673 391.887C552.08 391.891 549.486 391.881 546.893 391.897C546.355 391.901 545.774 391.75 545.266 392.188C545.266 392.396 545.249 392.624 545.269 392.848C545.671 397.356 546.079 401.865 546.48 406.373C546.528 406.918 546.413 407.577 547.211 407.636C547.937 407.69 547.899 407.068 548.046 406.588C549.186 402.873 552.115 400.667 555.84 400.69C559.23 400.712 561.852 402.812 562.918 406.417C563.18 407.306 563.639 407.687 564.602 407.663C566.916 407.605 569.238 407.554 571.546 407.678C573.006 407.756 573.671 407.288 574.08 405.851C575.17 402.015 579.439 399.752 583.232 400.962C585.961 401.832 587.839 403.622 588.506 406.52C588.629 407.053 588.795 407.649 589.545 407.61C590.173 407.577 590.422 407.151 590.469 406.591C590.849 402.127 591.214 397.661 591.6 393.198C591.683 392.237 591.287 391.855 590.33 391.87C588.247 391.903 586.162 391.888 584.079 391.879C583.014 391.874 581.949 391.866 580.887 391.808C580.472 391.786 580.027 391.641 579.999 391.105C579.968 390.532 580.364 390.272 580.854 390.191C581.262 390.125 581.685 390.143 582.101 390.143C584.972 390.138 587.844 390.113 590.715 390.152C591.697 390.165 592.167 389.829 592.198 388.81C592.23 387.797 592.377 386.787 592.474 385.775C592.649 383.938 592.649 383.934 590.849 383.934C578.206 383.932 565.563 383.932 552.643 383.931ZM579.018 375.703C578.467 377.334 577.425 378.472 575.774 379.052C575.21 379.249 574.702 379.599 574.151 379.84C573.597 380.083 572.944 380.689 572.49 379.8C572.083 379.003 572.639 378.532 573.302 378.152C574.244 377.611 575.339 377.32 576.197 376.486C575.177 375.485 573.782 375.377 572.726 374.668C570.035 372.86 567.436 372.92 564.806 374.795C563.989 375.378 562.795 375.462 562.228 376.356C561.115 378.112 560.574 380.118 559.832 381.984C560.471 382.52 561.05 382.338 561.581 382.326C563.754 382.276 565.927 382.133 568.1 382.122C574.536 382.087 580.972 382.102 587.408 382.082C587.938 382.081 588.801 382.307 588.903 381.715C589.132 380.383 589.853 378.758 589.089 377.702C587.883 376.034 586.355 374.327 583.828 374.784C582.729 374.982 581.623 375.03 580.511 375.029C579.991 375.028 579.486 375.064 579.018 375.703ZM558.607 413.162C560.678 411.482 561.421 409.361 560.739 406.761C560.057 404.159 557.212 402.231 554.61 402.617C551.596 403.065 549.179 405.705 549.283 408.436C549.465 413.16 554.234 415.682 558.607 413.162ZM585.44 404.972C583.793 403.068 581.786 402.184 579.267 402.85C576.406 403.605 574.478 406.9 575.16 409.821C575.854 412.799 578.943 414.759 581.941 414.126C586.09 413.25 587.775 409.064 585.44 404.972ZM552.022 376.887C551.032 377.105 550.043 377.322 549.054 377.541C548.637 377.633 548.229 377.773 548.067 378.209C547.657 379.317 547.048 380.365 546.911 381.644C547.189 381.707 547.401 381.767 547.616 381.803C550.642 382.315 553.694 382.025 556.734 382.081C557.843 382.101 559.505 379.765 559.177 378.69C559.128 378.53 558.99 378.342 558.843 378.276C556.745 377.334 554.804 375.658 552.022 376.887Z" fill="#F77B0B"/>
<path d="M458.637 321.958C463.954 321.958 468.265 317.647 468.265 312.329C468.265 307.011 463.954 302.7 458.637 302.7C453.319 302.7 449.008 307.011 449.008 312.329C449.008 317.647 453.319 321.958 458.637 321.958Z" fill="#F77B0B"/>
<path d="M515.035 313.204V290.445" stroke="#F77B0B"/>
<path d="M513.783 289.945H559.301" stroke="#F77B0B"/>
<path d="M468.268 312.704H513.786" stroke="#F77B0B"/>
<path d="M623.584 293.576C618.643 293.588 613.764 293.599 608.885 293.592C607.872 293.591 607.287 293.147 607.275 292.462C607.262 291.714 607.878 291.269 608.965 291.268C613.638 291.264 618.311 291.257 622.983 291.271C624.592 291.276 626.062 290.906 627.344 289.895C628.997 288.592 630.332 285.52 629.406 282.871C628.562 280.454 626.213 278.607 623.688 278.515C623.185 278.497 622.681 278.528 622.177 278.538C621.197 278.557 620.87 278.29 620.717 277.304C620.43 275.445 619.835 273.723 618.683 272.196C616.572 269.396 612.035 267.461 608.17 268.88C607.163 269.25 606.552 269.03 605.865 268.238C603.332 265.317 600.086 263.913 596.216 263.965C590.329 264.043 584.984 269.005 584.484 274.844C584.426 275.529 584.361 276.21 584.4 276.899C584.465 278.014 584.165 278.368 583.035 278.529C581.094 278.805 579.549 279.724 578.442 281.352C575.779 285.268 578.274 290.702 582.978 291.262C583.734 291.352 584.485 291.362 585.24 291.362C589.569 291.364 593.898 291.363 598.228 291.366C598.523 291.366 598.82 291.344 599.103 291.482C599.489 291.669 599.714 291.969 599.751 292.385C599.791 292.833 599.597 293.186 599.213 293.425C598.931 293.6 598.617 293.64 598.29 293.64C593.457 293.637 588.623 293.675 583.791 293.625C579.476 293.581 575.971 290.641 575.194 286.532C574.375 282.197 576.906 277.916 581.118 276.616C581.866 276.385 582.08 276.037 582.127 275.274C582.53 268.674 587.243 263.233 593.667 261.97C598.769 260.968 603.228 262.366 606.951 266.008C607.379 266.426 607.759 266.532 608.35 266.404C614.799 265.007 621.003 268.914 622.598 275.362C622.726 275.877 622.944 276.121 623.513 276.161C626.965 276.402 629.577 278.013 631.102 281.143C633.732 286.538 629.971 293.038 623.989 293.529C623.875 293.538 623.761 293.555 623.584 293.576Z" fill="#F77B0B"/>
<path d="M604.721 293.885C604.722 295.535 604.726 297.116 604.721 298.696C604.717 299.597 604.304 300.12 603.602 300.138C602.871 300.156 602.438 299.623 602.438 298.679C602.435 293.57 602.437 288.461 602.433 283.352C602.432 283.083 602.492 282.804 602.345 282.503C602.012 282.532 601.873 282.823 601.68 283.02C601.022 283.69 600.392 284.387 599.72 285.042C599.091 285.656 598.472 285.68 597.968 285.169C597.48 284.675 597.488 283.97 598.055 283.395C599.549 281.876 601.055 280.369 602.578 278.879C603.241 278.231 603.829 278.248 604.496 278.905C605.997 280.384 607.487 281.875 608.971 283.372C609.585 283.992 609.636 284.622 609.154 285.128C608.633 285.676 608.027 285.641 607.355 284.995C606.677 284.345 606.024 283.669 605.349 283.016C605.195 282.867 605.085 282.634 604.721 282.636C604.721 286.368 604.721 290.092 604.721 293.885Z" fill="#F77B0B"/>
<path d="M604.699 316.193C601.619 315.862 600.105 314.317 599.644 311.3C599.451 310.038 599.704 308.882 600.123 307.755C600.937 305.562 603.569 304.339 606.098 304.892C608.592 305.437 610.082 307.297 610.214 310.024C610.25 310.783 610.19 311.533 610.014 312.271C609.427 314.746 607.513 316.173 604.699 316.193ZM601.834 310.21C601.761 311.076 601.962 311.894 602.3 312.679C602.826 313.904 603.806 314.436 605.306 314.339C606.479 314.264 607.414 313.513 607.772 312.378C608.131 311.242 608.209 310.121 607.855 308.952C607.424 307.525 606.606 306.754 605.283 306.697C603.584 306.624 602.733 307.17 602.178 308.694C602.014 309.146 601.872 309.604 601.834 310.21Z" fill="#F77B0B"/>
<path d="M591.482 305.832C593.429 304.597 595.431 304.529 597.493 305.326C597.786 305.44 598.067 305.621 598.308 305.824C598.734 306.183 598.807 306.648 598.494 307.111C598.194 307.555 597.763 307.637 597.289 307.388C596.487 306.966 595.656 306.665 594.731 306.792C592.877 307.046 591.973 307.982 591.818 309.854C591.771 310.42 591.751 311.01 591.855 311.564C592.299 313.944 594.41 314.95 596.795 313.953C597.006 313.865 597.21 313.759 597.415 313.659C597.892 313.426 598.316 313.483 598.622 313.934C598.952 314.422 598.784 314.861 598.386 315.215C597.934 315.617 597.38 315.859 596.805 316.013C593.265 316.962 588.915 314.953 589.461 309.643C589.618 308.113 590.245 306.841 591.482 305.832Z" fill="#F77B0B"/>
<path d="M614.108 315.135C614.58 314.605 615.049 314.136 615.246 313.47C615.48 312.679 615.068 312.144 614.243 312.251C613.816 312.307 613.402 312.458 612.98 312.559C612.519 312.668 612.039 312.758 611.817 312.186C611.605 311.64 611.94 311.337 612.379 311.097C613.26 310.615 614.206 310.486 615.172 310.664C616.879 310.979 617.416 312.085 616.979 313.841C616.829 314.446 616.463 314.956 616.013 315.397C615.492 315.906 614.977 316.422 614.466 316.929C614.607 317.179 614.81 317.108 614.978 317.112C615.435 317.123 615.893 317.111 616.35 317.117C617.26 317.129 617.624 317.357 617.63 317.911C617.637 318.477 617.314 318.676 616.368 318.678C615.225 318.679 614.081 318.688 612.938 318.672C612.001 318.66 611.675 318.047 612.192 317.254C612.708 316.462 613.45 315.867 614.108 315.135Z" fill="#F77B0B"/>
<path d="M648.294 290.548C648.294 315.468 628.093 335.669 603.174 335.669C578.254 335.669 558.053 315.468 558.053 290.548C558.053 265.629 578.254 245.427 603.174 245.427C628.093 245.427 648.294 265.629 648.294 290.548Z" stroke="#F77B0B"/>
<path d="M257.312 286.944C262.63 286.944 266.941 282.633 266.941 277.315C266.941 271.997 262.63 267.686 257.312 267.686C251.995 267.686 247.684 271.997 247.684 277.315C247.684 282.633 251.995 286.944 257.312 286.944Z" fill="#F77B0B"/>
<path d="M290.951 325.862V276.44" stroke="#F77B0B"/>
<path d="M266.943 277.69H291.274" stroke="#F77B0B"/>
<path d="M291.451 324.959H315.782" stroke="#F77B0B"/>
<path d="M403.197 182.004C403.197 206.924 382.995 227.125 358.076 227.125C333.156 227.125 312.955 206.924 312.955 182.004C312.955 157.085 333.156 136.884 358.076 136.884C382.995 136.884 403.197 157.085 403.197 182.004Z" stroke="#F77B0B"/>
<path d="M355.898 196.181C355.22 196.181 354.576 196.19 353.933 196.177C353.663 196.172 353.568 196.275 353.571 196.542C353.582 197.45 353.575 198.358 353.578 199.265C353.58 199.674 353.649 199.742 354.068 199.743C355.826 199.746 357.584 199.74 359.342 199.748C360.143 199.751 360.902 199.882 361.607 200.331C362.599 200.963 363.096 201.856 363.221 202.996C363.321 203.914 363.31 204.827 363.162 205.74C362.91 207.298 361.492 208.558 359.897 208.591C358.691 208.616 357.484 208.601 356.277 208.601C350.085 208.602 343.893 208.597 337.7 208.606C336.678 208.608 335.656 208.634 334.635 208.595C333.686 208.559 332.875 208.21 332.222 207.505C331.713 206.957 331.451 206.326 331.463 205.572C331.48 204.529 331.441 203.488 331.643 202.45C331.968 200.776 333.584 199.869 334.789 199.797C336.774 199.677 338.763 199.77 340.75 199.747C341.327 199.741 341.327 199.745 341.327 199.183C341.328 198.367 341.329 197.551 341.328 196.736C341.327 196.26 341.248 196.183 340.761 196.182C339.21 196.181 337.657 196.143 336.107 196.195C335.09 196.228 334.147 195.204 334.152 194.237C334.167 191.376 334.155 188.514 334.158 185.653C334.159 184.399 334.895 183.667 336.16 183.666C340.355 183.661 344.549 183.663 348.743 183.662C349.322 183.662 349.322 183.66 349.323 183.091C349.324 182.436 349.318 181.781 349.326 181.126C349.339 180.1 349.954 179.45 350.982 179.381C351.401 179.352 351.697 179.191 351.939 178.822C355.158 173.899 358.391 168.986 361.62 164.07C363.222 161.632 364.823 159.192 366.423 156.752C366.933 155.973 367.659 155.534 368.571 155.407C369.525 155.275 370.797 156.013 371.154 156.954C371.353 157.477 371.63 157.945 371.918 158.414C374.307 162.299 376.696 166.184 379.079 170.072C379.236 170.327 379.414 170.454 379.723 170.41C380.899 170.243 381.898 170.744 382.474 171.808C382.966 172.717 383.428 173.642 383.908 174.558C384.137 174.995 384.383 175.423 384.613 175.86C385.144 176.868 384.976 178.393 383.772 179.271C383.578 179.412 383.365 179.53 383.15 179.638C380.891 180.769 378.629 181.896 376.367 183.022C376.275 183.068 376.179 183.108 376.08 183.137C375.573 183.287 375.203 183.172 374.996 182.805C374.744 182.359 374.818 181.925 375.214 181.564C375.489 181.313 375.811 181.127 376.158 181.005C376.536 180.87 376.825 180.611 377.144 180.39C377.339 180.255 377.196 180.126 377.132 180.006C376.459 178.75 375.781 177.497 375.058 176.27C374.778 175.795 374.509 175.314 374.237 174.835C373.788 174.045 373.844 173.281 374.406 172.561C374.526 172.407 374.614 172.274 374.464 172.075C372.602 169.624 370.747 167.168 368.879 164.699C368.71 164.798 368.681 164.952 368.629 165.082C366.849 169.49 365.074 173.9 363.295 178.308C362.784 179.576 362.262 180.839 361.752 182.106C361.571 182.556 361.423 183.014 361.561 183.512C361.587 183.609 361.568 183.718 361.568 183.822C361.568 187.165 361.568 190.509 361.568 193.853C361.568 194.106 361.558 194.356 361.512 194.607C361.343 195.545 360.618 196.172 359.655 196.179C358.414 196.187 357.173 196.181 355.898 196.181ZM343.659 194.348C348.956 194.348 354.254 194.348 359.551 194.347C359.985 194.347 360.01 194.323 360.011 193.907C360.013 193.068 360.013 192.229 360.011 191.39C360.009 190.955 359.974 190.922 359.535 190.922C358.007 190.922 356.479 190.923 354.95 190.924C353.884 190.925 352.805 190.08 352.833 188.809C352.863 187.465 352.839 186.12 352.84 184.776C352.841 183.603 353.39 182.99 354.555 182.864C354.703 182.848 354.853 182.85 355.003 182.85C356.359 182.849 357.715 182.851 359.071 182.846C359.202 182.846 359.345 182.891 359.462 182.791C359.451 182.476 359.448 182.465 359.29 182.245C358.72 181.455 357.922 181.182 356.98 181.187C355.153 181.198 353.326 181.189 351.499 181.189C351.029 181.189 351.02 181.2 351.02 181.673C351.019 184.408 351.02 187.143 351.019 189.878C351.018 190.47 350.828 190.706 350.3 190.788C349.69 190.883 349.421 190.717 349.234 190.14C349.186 189.993 349.187 189.846 349.186 189.697C349.185 188.445 349.186 187.192 349.185 185.94C349.184 185.51 349.171 185.496 348.736 185.496C344.644 185.495 340.553 185.495 336.462 185.496C336.014 185.496 335.993 185.518 335.993 185.961C335.992 188.582 335.992 191.202 335.993 193.822C335.993 194.32 336.019 194.347 336.522 194.347C338.878 194.348 341.234 194.348 343.659 194.348ZM347.106 201.601C343.143 201.601 339.179 201.601 335.215 201.602C335.055 201.602 334.893 201.603 334.734 201.621C333.989 201.707 333.439 202.319 333.435 203.067C333.431 203.779 333.434 204.491 333.435 205.204C333.435 205.932 333.803 206.435 334.497 206.671C334.843 206.788 335.199 206.774 335.555 206.774C343.62 206.775 351.685 206.775 359.75 206.775C359.842 206.775 359.934 206.777 360.026 206.769C360.798 206.705 361.356 206.208 361.479 205.453C361.605 204.676 361.508 203.897 361.481 203.118C361.467 202.688 361.292 202.374 360.979 202.108C360.495 201.697 359.924 201.596 359.307 201.597C355.263 201.604 351.219 201.601 347.106 201.601ZM366.886 164.365C366.949 164.205 367.011 164.044 367.075 163.885C367.819 162.044 368.58 160.21 369.25 158.34C369.353 158.053 369.411 157.749 369.207 157.488C368.993 157.214 368.678 157.247 368.379 157.3C368.121 157.346 367.979 157.54 367.842 157.748C363.238 164.739 358.708 171.779 354.034 178.724C353.948 178.851 353.82 178.971 353.858 179.152C353.981 179.222 354.11 179.192 354.234 179.194C355.324 179.217 356.416 179.153 357.505 179.242C358.632 179.334 359.603 179.769 360.454 180.565C362.661 175.207 364.68 169.777 366.886 164.365ZM381.336 174.057C381.117 173.614 380.909 173.166 380.677 172.731C380.409 172.23 379.916 172.028 379.43 172.248C378.342 172.739 377.229 173.167 376.108 173.576C375.867 173.664 375.816 173.777 375.955 174.008C376.278 174.55 376.587 175.101 376.892 175.654C377.542 176.829 378.191 178.005 378.83 179.186C378.954 179.416 379.06 179.478 379.303 179.321C379.601 179.128 379.931 178.987 380.25 178.829C380.907 178.501 381.574 178.191 382.222 177.848C382.805 177.539 382.901 177.148 382.601 176.561C382.183 175.744 381.773 174.922 381.336 174.057ZM348.003 199.747C349.162 199.747 350.321 199.741 351.481 199.749C351.774 199.752 351.888 199.649 351.883 199.347C351.868 198.509 351.87 197.671 351.882 196.833C351.887 196.548 351.783 196.452 351.5 196.453C348.848 196.46 346.196 196.46 343.544 196.451C343.231 196.45 343.154 196.576 343.158 196.863C343.171 197.689 343.163 198.516 343.163 199.342C343.164 199.868 343.189 199.904 343.703 199.868C345.112 199.768 346.522 199.751 348.003 199.747ZM356.139 184.845C355.795 184.845 355.45 184.859 355.107 184.842C354.781 184.825 354.663 184.946 354.667 185.279C354.683 186.38 354.673 187.482 354.674 188.583C354.674 189.08 354.693 189.097 355.206 189.098C355.401 189.098 355.596 189.098 355.791 189.098C357.008 189.098 358.224 189.098 359.44 189.098C359.68 189.099 359.875 189.062 359.874 188.75C359.87 187.557 359.872 186.364 359.872 185.17C359.872 184.931 359.765 184.822 359.512 184.825C358.411 184.838 357.309 184.84 356.139 184.845ZM374.937 167.084C373.553 164.798 372.17 162.512 370.788 160.229C370.65 160.285 370.654 160.392 370.625 160.472C370.418 161.045 370.201 161.615 369.912 162.151C369.725 162.497 369.773 162.785 370.003 163.07C371.178 164.529 372.231 166.078 373.36 167.572C374.302 168.818 375.267 170.046 376.221 171.283C376.319 171.412 376.408 171.554 376.608 171.505C376.898 171.434 377.174 171.336 377.405 171.091C376.588 169.763 375.776 168.445 374.937 167.084Z" fill="#F77B0B"/>
</g>
<defs>
<clipPath id="clip0_1224_150">
<rect width="691" height="541" fill="white"/>
</clipPath>
</defs>
</svg>
