<?xml version="1.0" encoding="utf-8"?>
<!-- Generator: Adobe Illustrator 25.4.1, SVG Export Plug-In . SVG Version: 6.00 Build 0)  -->
<svg version="1.1" id="Ebene_1" xmlns="http://www.w3.org/2000/svg" xmlns:xlink="http://www.w3.org/1999/xlink" x="0px" y="0px"
	 viewBox="0 0 170.1 42.5" style="enable-background:new 0 0 170.1 42.5;" xml:space="preserve">
<style type="text/css">
	.st0{fill:#2F9D68;}
	.st1{fill:#0D452F;}
	.st2{fill:#191A19;}
</style>
<g>
	<g>
		<path class="st0" d="M41.9,40.4H2.7c-1.5,0-2.7-1.2-2.7-2.7V21.6C0,14.5,5.7,8.7,12.8,8.7h29.1c1.5,0,2.7,1.2,2.7,2.7v26.2
			C44.6,39.2,43.4,40.4,41.9,40.4z"/>
		<path class="st1" d="M12.8,8.7h26.9V7.7c0-1-0.8-1.9-1.9-1.9h-19c-0.6-1.1-1.2-2.1-1.6-3c-0.2-0.4-0.8-0.7-1.5-0.7H4.9
			c-0.7,0-1.3,0.3-1.5,0.7c-1,2.4-2,6.1-2.7,10.5C0.3,16.1,0,19.1,0,21.6C0,14.5,5.7,8.7,12.8,8.7z"/>
		<g>
			<g>
				<path class="st1" d="M34.6,24.9c0,0.1,0,0.1-0.1,0.2c-5.8,4.6-10.7,6.3-14.7,5.2c-3.5-1-5.1-3.7-5.6-4.8h-2.9
					c-0.3,0-0.6-0.3-0.6-0.6c0-0.3,0.2-0.6,0.6-0.6h2.9c0.5-1.1,2-3.7,5.6-4.8c4-1.1,8.9,0.6,14.7,5.2
					C34.5,24.8,34.6,24.9,34.6,24.9"/>
			</g>
		</g>
	</g>
	<g>
		<path class="st2" d="M54.7,34.9v-21h5.3l0.1,3.5c0.7-1.1,1.6-2.1,2.7-2.8c1.1-0.7,2.3-1.1,3.6-1.1c0.5,0,0.9,0,1.3,0.1
			c0.4,0.1,0.8,0.2,1.1,0.3l-1.5,6c-0.3-0.2-0.7-0.3-1.1-0.4c-0.5-0.1-0.9-0.2-1.4-0.2c-1.3,0-2.4,0.4-3.3,1.3
			c-0.9,0.9-1.3,2-1.3,3.4v11H54.7z"/>
		<path class="st2" d="M81,35.3c-2.3,0-4.2-0.5-5.9-1.4c-1.7-0.9-3-2.2-4-3.8c-0.9-1.6-1.4-3.5-1.4-5.6c0-2.2,0.5-4.1,1.4-5.8
			c0.9-1.7,2.2-3,3.8-3.9c1.6-1,3.5-1.4,5.6-1.4c1.9,0,3.6,0.5,5.1,1.4c1.5,0.9,2.7,2.2,3.5,3.7c0.8,1.6,1.2,3.4,1.2,5.4l0,1.7H75
			c0.3,1.5,1,2.7,2.2,3.6c1.2,0.9,2.6,1.3,4.4,1.3c1,0,1.8-0.1,2.6-0.4c0.8-0.3,1.6-0.8,2.5-1.6l2.6,3.7c-1.1,1-2.4,1.8-3.9,2.3
			C83.9,35,82.4,35.3,81,35.3z M80.4,18.1c-3,0-4.8,1.4-5.4,4.1h10V22c-0.1-1.1-0.6-2.1-1.4-2.8C82.7,18.4,81.6,18.1,80.4,18.1z"/>
		<path class="st2" d="M101.4,35.3c-1.9,0-3.7-0.3-5.2-1c-1.5-0.6-2.7-1.5-3.7-2.7l3.4-2.9c0.8,0.9,1.7,1.5,2.7,1.9
			c1,0.4,2,0.6,3.1,0.6c0.8,0,1.5-0.2,2-0.6c0.5-0.4,0.8-0.9,0.8-1.6c0-0.6-0.2-1-0.7-1.4c-0.5-0.3-1.6-0.7-3.4-1.2
			c-2.7-0.7-4.6-1.6-5.7-2.8c-1-1.1-1.5-2.4-1.5-3.9c0-1.2,0.4-2.3,1.1-3.3c0.7-0.9,1.7-1.7,2.9-2.2c1.2-0.5,2.5-0.8,4-0.8
			c1.6,0,3.2,0.3,4.7,0.9c1.5,0.6,2.7,1.4,3.7,2.4l-2.9,3.2c-0.7-0.7-1.6-1.3-2.6-1.7c-1-0.5-1.9-0.7-2.7-0.7c-1.9,0-2.9,0.7-2.9,2
			c0,0.6,0.3,1.1,0.9,1.5c0.5,0.4,1.7,0.8,3.6,1.3c2.5,0.7,4.3,1.5,5.3,2.6c0.9,0.9,1.4,2.2,1.4,3.7c0,1.3-0.4,2.4-1.1,3.4
			c-0.7,1-1.7,1.8-3,2.4C104.4,35,103,35.3,101.4,35.3z"/>
		<path class="st2" d="M117.1,9.5c-1.1,0-1.9-0.3-2.5-0.8c-0.6-0.5-0.9-1.3-0.9-2.2c0-0.9,0.3-1.6,0.9-2.2c0.6-0.6,1.4-0.8,2.5-0.8
			c1.1,0,1.9,0.3,2.5,0.8c0.6,0.5,0.9,1.3,0.9,2.2c0,0.9-0.3,1.6-0.9,2.2C118.9,9.2,118.1,9.5,117.1,9.5z M114.4,34.9v-21h5.5v21
			H114.4z"/>
		<path class="st2" d="M126,34.9V5.4h5.4v29.5H126z"/>
		<path class="st2" d="M140.5,9.5c-1.1,0-1.9-0.3-2.5-0.8c-0.6-0.5-0.9-1.3-0.9-2.2c0-0.9,0.3-1.6,0.9-2.2c0.6-0.6,1.4-0.8,2.5-0.8
			c1.1,0,1.9,0.3,2.5,0.8c0.6,0.5,0.9,1.3,0.9,2.2c0,0.9-0.3,1.6-0.9,2.2C142.3,9.2,141.5,9.5,140.5,9.5z M137.7,34.9v-21h5.5v21
			H137.7z"/>
		<path class="st2" d="M159,35.3c-2.1,0-4.1-0.5-5.7-1.4c-1.7-0.9-3-2.2-3.9-3.9c-1-1.6-1.4-3.5-1.4-5.7c0-2.1,0.5-4,1.4-5.6
			c1-1.6,2.3-2.9,3.9-3.9c1.7-0.9,3.6-1.4,5.7-1.4c2.1,0,4,0.5,5.7,1.4c1.7,0.9,3,2.2,3.9,3.9c1,1.6,1.4,3.5,1.4,5.6
			c0,2.1-0.5,4-1.4,5.7c-1,1.6-2.3,2.9-3.9,3.9C163,34.8,161.1,35.3,159,35.3z M159,30.5c1.1,0,2-0.3,2.9-0.8c0.8-0.5,1.5-1.3,2-2.2
			c0.5-0.9,0.7-2,0.7-3.2s-0.2-2.3-0.7-3.2c-0.5-0.9-1.1-1.7-2-2.2c-0.9-0.5-1.8-0.8-2.9-0.8c-1.1,0-2.1,0.3-2.9,0.8
			c-0.9,0.5-1.5,1.3-2,2.2c-0.5,0.9-0.7,2-0.7,3.2s0.2,2.3,0.7,3.2c0.5,0.9,1.1,1.7,2,2.2C157,30.3,158,30.5,159,30.5z"/>
	</g>
</g>
</svg>
